<?xml version="1.0" encoding="utf-8"?>
<!-- Generator: Adobe Illustrator 27.8.1, SVG Export Plug-In . SVG Version: 6.00 Build 0)  -->
<svg version="1.0" id="Layer_1" xmlns="http://www.w3.org/2000/svg" xmlns:xlink="http://www.w3.org/1999/xlink" x="0px" y="0px"
	 viewBox="0 0 1092 455.2" style="enable-background:new 0 0 1092 455.2;" xml:space="preserve">
<style type="text/css">
	.st0{clip-path:url(#SVGID_00000129925503335137142170000005475794675785099195_);}
	.st1{fill-rule:evenodd;clip-rule:evenodd;fill:#ED1867;}
	.st2{fill-rule:evenodd;clip-rule:evenodd;fill:#F8951D;}
	.st3{fill-rule:evenodd;clip-rule:evenodd;fill:#C3D946;}
	.st4{fill-rule:evenodd;clip-rule:evenodd;fill:#563795;}
	.st5{fill-rule:evenodd;clip-rule:evenodd;fill:#3851A3;}
	.st6{fill-rule:evenodd;clip-rule:evenodd;fill:#7D2E92;}
	.st7{fill-rule:evenodd;clip-rule:evenodd;fill:#EF4632;}
	.st8{clip-path:url(#SVGID_00000073709965427191678620000011872655833672795291_);}
	.st9{fill:#EF4632;}
</style>
<g>
	<g>
		<defs>
			<path id="SVGID_1_" d="M888.4,68c20.1,0,39.3,2.8,57.4,8.5c19.2,6,38.6-8,38.6-28.1v-4.4c0-13.2-8.6-25-21.3-28.6
				c-23.3-6.7-50.7-10.1-82.1-10.1c-64.6,0-118,21.2-160.3,63.6c-8.8,8.8-16.6,18.3-23.6,28.2c-36.7-56.4-105.4-84.6-206.1-84.6
				H366.7v430.1h119.1c74,0,133-20.1,177-60.4c9-8.3,17.1-17.1,24.3-26.5c7.5,12.6,16.3,24.3,26.5,35.1
				c37.6,39.4,87.6,59.1,150,59.1c39,0,72.9-5.5,101.6-16.5c11.6-4.5,19.3-15.5,19.3-27.9c0-20.6-20.2-34.2-39.8-27.8
				c-20.1,6.6-42,9.9-65.7,9.9c-44,0-79.5-14-106.5-42.2c-27-28.1-40.5-65.8-40.5-113.2c0-49.8,14.4-89.6,43.3-119.4
				C804.1,82.9,841.8,68,888.4,68z M611.9,341c-27.9,27.6-66.9,41.4-117.1,41.4h-57V73.1h59.7c104.2,0,156.3,50.3,156.3,150.9
				C653.7,274.4,639.8,313.4,611.9,341z"/>
		</defs>
		<clipPath id="SVGID_00000106143841085874775460000006454888264015506061_">
			<use xlink:href="#SVGID_1_"  style="overflow:visible;"/>
		</clipPath>
		<g style="clip-path:url(#SVGID_00000106143841085874775460000006454888264015506061_);">
			<rect x="333.8" y="225.1" class="st1" width="343.9" height="242.3"/>
			<polygon class="st2" points="1021.5,225.1 849.6,346.2 1021.5,467.4 			"/>
			<polygon class="st3" points="1021.5,467.4 849.6,346.2 677.7,467.4 			"/>
			<polygon class="st4" points="333.8,225.1 505.8,103.9 333.8,-17.2 			"/>
			<polygon class="st5" points="333.8,-17.2 505.8,103.9 677.7,-17.2 			"/>
			<polygon class="st6" points="333.8,225.1 677.7,225.1 1021.5,-17.2 677.7,-17.2 			"/>
			<polygon class="st7" points="677.7,225.1 677.7,467.4 1021.5,225.1 1021.5,-17.2 			"/>
		</g>
	</g>
	<g>
		<defs>
			<path id="SVGID_00000168083851622578911020000006274046593995032733_" d="M3,64.7h203.7c-16.8,31.6-32.6,62.9-47.5,93.9
				s-28.3,61.8-40.3,92.5c-12,30.7-22.4,61.4-31.3,92.1c-8.9,30.7-15.7,61.4-20.5,92.2h72.9c5.2-34.6,12.6-68.4,22.2-101.5
				c9.6-33.1,20.9-65.9,33.9-98.5c13-32.6,27.5-65,43.5-97.3c16-32.3,33-64.9,51-97.9V5.3H3V64.7z"/>
		</defs>
		<clipPath id="SVGID_00000139277589982451982870000015171435854893354889_">
			<use xlink:href="#SVGID_00000168083851622578911020000006274046593995032733_"  style="overflow:visible;"/>
		</clipPath>
		<g style="clip-path:url(#SVGID_00000139277589982451982870000015171435854893354889_);">
			<rect x="-61.1" y="217.9" class="st1" width="193.7" height="242.3"/>
			<polygon class="st2" points="326.4,217.9 229.5,339 326.4,460.2 			"/>
			<polygon class="st3" points="326.4,460.2 229.5,339 132.7,460.2 			"/>
			<polygon class="st4" points="-61.1,217.9 35.8,96.7 -61.1,-24.4 			"/>
			<polygon class="st5" points="-61.1,-24.4 35.8,96.7 132.7,-24.4 			"/>
			<polygon class="st6" points="-61.1,217.9 132.7,217.9 326.4,-24.4 132.7,-24.4 			"/>
			<polygon class="st7" points="132.7,217.9 132.7,460.2 326.4,217.9 326.4,-24.4 			"/>
		</g>
	</g>
</g>
<g>
	<path class="st9" d="M1039.8,108.2c-19.8,0-35.8-16.1-35.8-35.8s16.1-35.8,35.8-35.8c19.8,0,35.8,16.1,35.8,35.8
		S1059.5,108.2,1039.8,108.2z M1039.8,42.2c-16.7,0-30.2,13.6-30.2,30.2c0,16.7,13.6,30.2,30.2,30.2c16.7,0,30.2-13.6,30.2-30.2
		C1070,55.7,1056.5,42.2,1039.8,42.2z"/>
	<g>
		<path class="st9" d="M1055.7,90.8h-5.3l-6.5-10.8c-1.2-2-2.3-3.3-3.1-3.9c-0.9-0.6-1.9-0.9-3.2-0.9h-4.4v15.6h-4.5V52.7h11.4
			c3.3,0,6.1,0.9,8.3,2.6c2.2,1.8,3.3,4.4,3.3,7.8c0,2.7-0.7,5-2.1,6.8c-1.4,1.8-3.3,3.2-5.8,4v0.1c0.8,0.5,1.5,1,2.1,1.6
			c0.6,0.6,1.2,1.4,1.9,2.5L1055.7,90.8z M1033.1,56.7v14.5h6.1c2.2,0,4.1-0.7,5.5-2.2c1.5-1.4,2.2-3.3,2.2-5.6c0-2-0.7-3.7-2-4.9
			c-1.3-1.2-3.2-1.8-5.7-1.8H1033.1z"/>
	</g>
</g>
</svg>
