<?xml version="1.0" encoding="utf-8"?>
<!-- Generator: Adobe Illustrator 28.0.0, SVG Export Plug-In . SVG Version: 6.00 Build 0)  -->
<svg version="1.1" id="Layer_1" xmlns="http://www.w3.org/2000/svg" xmlns:xlink="http://www.w3.org/1999/xlink" x="0px" y="0px"
	 viewBox="0 0 1092 455.2" style="enable-background:new 0 0 1092 455.2;" xml:space="preserve">
<style type="text/css">
	.st0{fill:#FFFFFF;}
</style>
<path class="st0" d="M888.4,68c20.1,0,39.3,2.8,57.4,8.5c19.2,6,38.6-8,38.6-28.1V44c0-13.2-8.6-25-21.3-28.6
	C939.8,8.7,912.4,5.3,881,5.3c-64.6,0-118,21.2-160.3,63.6c-8.8,8.8-16.6,18.3-23.6,28.2C660.4,40.7,591.7,12.5,491,12.5H366.7
	v430.1h119.1c74,0,133-20.1,177-60.4c9-8.3,17.1-17.1,24.3-26.5c7.5,12.6,16.3,24.3,26.5,35.1c37.6,39.4,87.6,59.1,150,59.1
	c39,0,72.9-5.5,101.6-16.5c11.6-4.5,19.3-15.5,19.3-27.9c0-20.6-20.2-34.2-39.8-27.8c-20.1,6.6-42,9.9-65.7,9.9
	c-44,0-79.5-14-106.5-42.2c-27-28.1-40.5-65.8-40.5-113.2c0-49.8,14.4-89.6,43.3-119.4C804.1,82.9,841.8,68,888.4,68z M611.9,341
	c-27.9,27.6-66.9,41.4-117.1,41.4h-57V73.1h59.7c104.2,0,156.3,50.3,156.3,150.9C653.7,274.4,639.8,313.4,611.9,341z"/>
<path class="st0" d="M3,64.7h203.7c-16.8,31.6-32.6,62.9-47.5,93.9s-28.3,61.8-40.3,92.5s-22.4,61.4-31.3,92.1s-15.7,61.4-20.5,92.2
	H140c5.2-34.6,12.6-68.4,22.2-101.5c9.6-33.1,20.9-65.9,33.9-98.5c13-32.6,27.5-65,43.5-97.3s33-64.9,51-97.9V5.3H3V64.7z"/>
<g>
	<path class="st0" d="M1039.8,108.2c-19.8,0-35.8-16.1-35.8-35.8s16.1-35.8,35.8-35.8c19.8,0,35.8,16.1,35.8,35.8
		S1059.5,108.2,1039.8,108.2z M1039.8,42.2c-16.7,0-30.2,13.6-30.2,30.2c0,16.7,13.6,30.2,30.2,30.2c16.7,0,30.2-13.6,30.2-30.2
		C1070,55.7,1056.5,42.2,1039.8,42.2z"/>
	<g>
		<path class="st0" d="M1055.7,90.8h-5.3l-6.5-10.8c-1.2-2-2.3-3.3-3.1-3.9c-0.9-0.6-1.9-0.9-3.2-0.9h-4.4v15.6h-4.5V52.7h11.4
			c3.3,0,6.1,0.9,8.3,2.6c2.2,1.8,3.3,4.4,3.3,7.8c0,2.7-0.7,5-2.1,6.8s-3.3,3.2-5.8,4V74c0.8,0.5,1.5,1,2.1,1.6s1.2,1.4,1.9,2.5
			L1055.7,90.8z M1033.1,56.7v14.5h6.1c2.2,0,4.1-0.7,5.5-2.2c1.5-1.4,2.2-3.3,2.2-5.6c0-2-0.7-3.7-2-4.9s-3.2-1.8-5.7-1.8H1033.1z"
			/>
	</g>
</g>
</svg>
